<svg width="160" height="39" viewBox="0 0 160 39" fill="none" xmlns="http://www.w3.org/2000/svg"><path d="M14.67 38.06c-1.194 0-2.047-.856-2.047-2.053 0-1.283.853-2.053 1.876-2.053.597 0 .938.171 1.364.428l.427-.77c-.426-.342-1.023-.599-1.791-.599-1.962 0-2.985 1.369-2.985 2.994 0 1.796 1.194 2.993 2.985 2.993.768 0 1.535-.257 1.876-.684l-.426-.77c-.341.342-.768.513-1.28.513zm12.963-5.132c-1.79 0-3.07 1.368-3.07 2.993 0 1.796 1.28 2.993 3.07 2.993 1.791 0 3.07-1.282 3.07-2.993-.085-1.796-1.364-2.993-3.07-2.993zm0 5.131c-1.108 0-1.961-.855-1.961-2.052 0-1.198.852-2.053 1.961-2.053s1.962.855 1.962 2.053c0 1.111-.768 2.052-1.962 2.052zm15.693-3.164c0-1.027-.511-1.796-2.132-1.796h-1.791V39h1.023v-2.224h.683L42.729 39h1.28l-1.877-2.395c.512-.256 1.194-.77 1.194-1.71zm-2.217.855h-.683v-1.71h.683c.853 0 1.108.427 1.108.855 0 .598-.511.855-1.108.855zm12.963-2.737h-1.705v5.901h1.023v-2.138h.768c1.364 0 2.132-.94 2.132-1.881.085-.941-.426-1.882-2.218-1.882zm.086 2.823h-.768v-1.797h.768c.682 0 1.108.343 1.108.941 0 .599-.426.856-1.108.856zm13.561-2.908c-1.791 0-3.07 1.368-3.07 2.993 0 1.796 1.278 2.993 3.07 2.993 1.705 0 3.07-1.282 3.07-2.993 0-1.796-1.365-2.993-3.07-2.993zm0 5.131c-1.11 0-1.962-.855-1.962-2.052 0-1.198.853-2.053 1.962-2.053 1.108 0 1.961.855 1.961 2.053 0 1.111-.767 2.052-1.961 2.052zm15.693-3.164c0-1.027-.512-1.796-2.133-1.796h-1.79V39h1.023v-2.224h.682L82.814 39h1.28l-1.876-2.395c.511-.256 1.194-.77 1.194-1.71zm-2.218.855h-.682v-1.71h.682c.853 0 1.109.427 1.109.855 0 .598-.512.855-1.109.855zm13.049-2.737l-2.473 5.901h1.023l.597-1.539h2.474l.596 1.54h1.11l-2.474-5.902h-.853zm-.426 3.421l.853-2.052.852 2.052h-1.705zm11.513-2.394h1.877v4.874h1.109V34.04h1.876v-1.026h-4.862v1.026zm14.414-1.027h-1.023v5.901h1.023v-5.9zm11.94-.085c-1.791 0-3.07 1.368-3.07 2.993 0 1.796 1.279 2.993 3.07 2.993s3.071-1.282 3.071-2.993c0-1.796-1.365-2.993-3.071-2.993zm0 5.131c-1.108 0-1.961-.855-1.961-2.052 0-1.198.853-2.053 1.961-2.053 1.109 0 1.962.855 1.962 2.053 0 1.111-.768 2.052-1.962 2.052zm15.864-.941l-3.241-4.105h-.853v5.901h.938v-4.02l3.241 4.02h.853v-5.9h-.938v4.104zM8.87.257H0v23.69h8.87c4.776 0 9.211-2.309 9.211-7.782V8.21C17.996 2.65 13.561.257 8.87.257zm3.156 15.48c0 1.54-.939 2.566-2.985 2.566H5.97V5.816h3.07c1.961 0 2.985.94 2.985 2.48v7.44zm46.908.085c2.9-.94 4.605-3.42 4.605-7.783C63.454 2.48 59.702.257 54.755.257h-9.382v23.69h6.056v-7.526h1.108l5.459 7.526h7.42l-6.482-8.125zm-4.009-4.532H51.43V5.816h3.496c3.753 0 3.753 5.474 0 5.474zM130.235.257h-8.87v23.69h8.87c4.776 0 9.211-2.309 9.211-7.782V8.21c-.086-5.56-4.521-7.954-9.211-7.954zm3.155 15.48c0 1.54-.938 2.566-2.985 2.566h-3.07V5.816h3.07c1.962 0 2.985.94 2.985 2.48v7.44zM33.689.257H28.23l-8.273 23.69h6.397l1.45-4.79h6.311l1.535 4.79h6.397L33.689.257zm-4.52 13.598l1.705-6.927h.17l1.621 6.927h-3.497zM160 5.901V.257h-16.461v23.69H160v-5.644h-10.405V14.71h9.552V9.58h-9.552V5.901H160zM116.759.257h-5.97v23.69h5.97V.257zM99.02 9.151c-1.877-.427-3.071-1.112-3.156-2.223.085-2.737 4.349-2.823 6.823-.171l3.923-2.994C104.136.77 101.407 0 98.507 0c-4.35 0-8.528 2.48-8.528 7.099 0 4.533 3.496 6.927 7.25 7.526 1.96.257 4.093 1.026 4.008 2.395-.171 2.566-5.373 2.395-7.761-.428L89.722 20.1c2.217 2.822 5.202 4.276 8.017 4.276 4.35 0 9.126-2.48 9.382-7.099.255-5.901-3.924-7.355-8.103-8.125zM81.023.257l-6.396 8.809V.256H68.57v23.691h6.056v-8.21l.17-.257 6.056 8.467h7.59l-9.296-12.23L88.443.257h-7.42z" fill="#fff"/></svg>