<svg width="114" height="75" viewBox="0 0 114 75" fill="none" xmlns="http://www.w3.org/2000/svg">
<path d="M0 70.1046H1.32441V74.1813H2.02853V70.1046H3.35294V69.5032H0V70.1046Z" fill="white"/>
<path d="M6.40419 69.5032H5.56595L3.95654 74.1813H4.6439L5.07978 72.8781H6.84007L7.29272 74.1813H7.99684L6.42095 69.57L6.40419 69.5032ZM6.62213 72.2766H5.28095L5.95154 70.2717L6.62213 72.2766Z" fill="white"/>
<path d="M10.5617 71.4078H9.63966V70.1046H11.7688V69.5032H8.93555V74.1813H10.5617C11.0479 74.1813 11.4335 74.0643 11.7017 73.8304C11.9867 73.5965 12.1208 73.2457 12.1208 72.8113V72.7946C12.1376 71.8756 11.6011 71.4078 10.5617 71.4078ZM11.4335 72.7778V72.7946C11.4335 73.3292 11.1485 73.5798 10.545 73.5798H9.6229V71.9926H10.4947C11.1317 71.9926 11.4335 72.2432 11.4335 72.7778Z" fill="white"/>
<path d="M15.3563 69.5032H14.5181L12.9087 74.1813H13.596L14.0319 72.8781H15.7922L16.2449 74.1813H16.949L15.3731 69.57L15.3563 69.5032ZM15.591 72.2766H14.2499L14.9205 70.2717L15.591 72.2766Z" fill="white"/>
<path d="M21.3249 69.5032H20.5035L18.6426 71.5415V69.5032H17.9385V74.1813H18.6426V72.0928L20.5538 74.1813H21.4255L19.2461 71.7754L21.3249 69.5032Z" fill="white"/>
<path d="M21.8613 74.7328L22.3307 74.9834L23.1857 73.5131L22.5319 73.2124L21.8613 74.7328Z" fill="white"/>
<path d="M29.9084 69.5032H29.087L27.2261 71.5415V69.5032H26.522V74.1813H27.2261V72.0928L29.1373 74.1813H30.0258L27.8296 71.7754L29.9084 69.5032Z" fill="white"/>
<path d="M32.8754 69.5032H32.0371L30.4277 74.1813H31.1151L31.551 72.8781H33.3113L33.7471 74.1813H34.4513L32.8754 69.57V69.5032ZM33.1101 72.2766H31.7521L32.4227 70.2717L33.1101 72.2766Z" fill="white"/>
<path d="M38.844 69.5032H38.0225L36.1616 71.5415V69.5032H35.4575V74.1813H36.1616V72.0928L38.0728 74.1813H38.9446L36.7652 71.7754L38.844 69.5032Z" fill="white"/>
<path d="M40.4028 73.0786V69.5032H39.6987V74.1813H40.3693L42.6996 70.6059V74.1813H43.4037V69.5032H42.7331L40.4028 73.0786Z" fill="white"/>
<path d="M47.0419 72.8781L45.7007 69.5032H44.7954V74.1813H45.466V70.7061L46.891 74.1813H47.1592L48.5339 70.7061V74.1813H49.2381V69.5032H48.3495L47.0419 72.8781Z" fill="white"/>
<path d="M54.7535 69.4531C54.0829 69.4531 53.5129 69.687 53.0938 70.1381C52.6747 70.5892 52.4399 71.1573 52.4399 71.8256V71.8757C52.4399 72.544 52.6579 73.0954 53.0938 73.5465C53.5297 73.9976 54.0829 74.2315 54.7702 74.2315C55.4576 74.2315 55.9941 73.9976 56.4132 73.5465C56.8323 73.0954 57.0502 72.5273 57.0502 71.859V71.8089C57.0502 71.1406 56.8323 70.5725 56.4132 70.1381C55.9773 69.6703 55.4241 69.4531 54.7535 69.4531ZM56.3126 71.8089V71.859C56.3126 72.3936 56.1617 72.828 55.8935 73.1455C55.6252 73.4629 55.2397 73.63 54.7702 73.63C54.3008 73.63 53.932 73.4629 53.6302 73.1455C53.3285 72.8113 53.1776 72.3936 53.1776 71.8757V71.8256C53.1776 71.2909 53.3285 70.8566 53.5967 70.5391C53.8817 70.2217 54.2673 70.0546 54.7535 70.0546C55.2397 70.0546 55.6085 70.2217 55.8935 70.5558C56.1785 70.89 56.3126 71.3077 56.3126 71.8089Z" fill="white"/>
<path d="M61.1072 71.5415H58.8942V69.5032H58.1733V74.1813H58.8942V72.1764H61.1072V74.1813H61.828V69.5032H61.1072V71.5415Z" fill="white"/>
<path d="M68.5678 69.5032H65.6172V69.5867C65.6172 69.7872 65.6004 70.1213 65.5837 70.5557C65.5669 71.1906 65.5334 71.8422 65.4831 72.4604C65.4496 72.8113 65.3993 73.0786 65.3322 73.2624C65.2652 73.4127 65.1813 73.513 65.064 73.5631H64.7119V74.9999H65.3154L65.349 74.1813H68.4504L68.484 74.9999H69.0875V73.5631H68.5846L68.5678 69.5032ZM67.8804 70.1046V73.5464H65.9022C66.0363 73.3125 66.1034 72.9616 66.1369 72.5105C66.1537 72.2599 66.1704 71.9759 66.1872 71.6584C66.204 71.341 66.2207 71.0236 66.2375 70.6894C66.2543 70.4221 66.2543 70.2216 66.271 70.1046H67.8804Z" fill="white"/>
<path d="M72.1216 69.4531C71.451 69.4531 70.881 69.687 70.4619 70.1381C70.026 70.5892 69.8081 71.1573 69.8081 71.8256V71.8757C69.8081 72.544 70.026 73.0954 70.4619 73.5465C70.8978 73.9976 71.451 74.2315 72.1384 74.2315C72.8258 74.2315 73.3622 73.9976 73.7813 73.5465C74.2005 73.0954 74.4184 72.5273 74.4184 71.859V71.8089C74.4184 71.1406 74.2005 70.5725 73.7813 70.1381C73.3622 69.6703 72.7922 69.4531 72.1216 69.4531ZM72.1384 73.63C71.6858 73.63 71.3002 73.4629 70.9984 73.1455C70.6966 72.8113 70.5458 72.3936 70.5458 71.8757V71.8256C70.5458 71.2909 70.6966 70.8566 70.9649 70.5391C71.2499 70.2217 71.6355 70.0546 72.1216 70.0546C72.6078 70.0546 72.9766 70.2217 73.2616 70.5558C73.5466 70.89 73.6808 71.3077 73.6808 71.8089V71.859C73.6808 72.3936 73.5299 72.828 73.2616 73.1455C72.9934 73.4629 72.6078 73.63 72.1384 73.63Z" fill="white"/>
<path d="M75.9943 70.5557C75.9776 71.3744 75.944 72.0093 75.9105 72.4604C75.877 72.8447 75.8099 73.1287 75.7428 73.2958C75.6758 73.4461 75.5752 73.513 75.4411 73.513C75.374 73.513 75.3237 73.513 75.2734 73.4963L75.1226 73.4629V74.1479L75.2231 74.198C75.2734 74.2147 75.3405 74.2314 75.4411 74.2314C76.1452 74.2314 76.5308 73.6633 76.5979 72.5272C76.6314 71.9926 76.6649 71.1739 76.6984 70.1381H78.2073V74.1813H78.9114V69.5032H76.0279L75.9943 70.5557Z" fill="white"/>
<path d="M85.2988 69.5032H84.4941L82.8847 71.5415V69.5032H82.1973V71.5415L80.6047 69.5032H79.7832L81.6273 71.8088L79.7329 74.1813H80.5376L82.1973 72.1095V74.1813H82.8847V72.1095L84.5109 74.1479L84.5444 74.1813H85.3826L83.4714 71.7754L85.2988 69.5032Z" fill="white"/>
<path d="M86.9585 72.0928H88.6517V71.4914H86.9585V70.1046H89.0541V69.5032H86.2544V74.1813H89.1547V73.5798H86.9585V72.0928Z" fill="white"/>
<path d="M93.1448 71.5415H90.9151V69.5032H90.2109V74.1813H90.9151V72.1764H93.1448V74.1813H93.8489V69.5032H93.1448V71.5415Z" fill="white"/>
<path d="M98.8615 71.4078H97.9395V70.1046H100.069V69.5032H97.2354V74.1813H98.8615C99.3477 74.1813 99.7333 74.0643 100.002 73.8304C100.287 73.5965 100.421 73.2457 100.421 72.8113V72.7946C100.437 71.8756 99.9177 71.4078 98.8615 71.4078ZM99.7333 72.7778V72.7946C99.7333 73.3292 99.4483 73.5798 98.8448 73.5798H97.9227V71.9926H98.7945C99.4315 71.9926 99.7333 72.2432 99.7333 72.7778Z" fill="white"/>
<path d="M105.668 69.5032H104.964V74.1813H105.668V69.5032Z" fill="white"/>
<path d="M104.075 71.6751C103.773 71.458 103.371 71.341 102.885 71.341H102.265V69.5032H101.561V74.1813H102.902C103.371 74.1813 103.773 74.0643 104.092 73.8304C104.411 73.5965 104.561 73.2289 104.561 72.7611V72.7444C104.561 72.2432 104.394 71.8923 104.075 71.6751ZM103.841 72.7277V72.7444C103.841 73.2958 103.539 73.5631 102.918 73.5631H102.248V71.9258H102.918C103.539 71.9425 103.841 72.1931 103.841 72.7277Z" fill="white"/>
<path d="M106.69 70.1046H107.998V74.1813H108.719V70.1046H110.027V69.5032H106.69V70.1046Z" fill="white"/>
<path d="M113.531 71.6751C113.229 71.458 112.827 71.341 112.34 71.341H111.687V69.5032H110.982V74.1813H112.34C112.81 74.1813 113.212 74.0643 113.531 73.8304C113.849 73.5798 114 73.2289 114 72.7611V72.7444C114 72.2432 113.832 71.8923 113.531 71.6751ZM113.296 72.7277V72.7444C113.296 73.2958 112.994 73.5631 112.374 73.5631H111.687V71.9258H112.374C112.994 71.9425 113.296 72.1931 113.296 72.7277Z" fill="white"/>
<path d="M114 61.801H104.914C104.847 62.2354 104.662 62.6364 104.411 63.0207H114V61.801Z" fill="white"/>
<path d="M9.12 61.801H0V63.0207H8.835C8.86853 62.8369 8.88529 62.6698 8.91882 62.4693C8.96912 62.2521 9.05294 62.0182 9.12 61.801Z" fill="white"/>
<path d="M11.115 50.0725C11.6347 49.6882 12.1712 49.4042 12.5232 49.2371C12.9591 49.0032 13.395 48.8361 13.8141 48.6691V20.7007H10.1426L6.94059 41.3846L3.67147 20.7007H0V59.1781H4.15765L3.97324 41.0671L5.75029 54.1992H8.11412L9.84088 41.017L9.77382 51.3757C10.1091 50.9413 10.545 50.4902 11.115 50.0725Z" fill="white"/>
<path d="M28.2318 47.9171C28.4498 47.9171 28.651 47.9506 28.8521 47.9673V13.6667H24.9795V49.6714C25.1807 49.4208 25.3986 49.1702 25.6668 48.9363C26.6224 48.0842 27.578 47.9171 28.2318 47.9171Z" fill="white"/>
<path d="M21.1065 49.0031V13.6667H17.2339V47.9338C17.4015 47.9171 17.5859 47.9004 17.7368 47.9004C18.9942 47.8837 20.1509 48.2847 21.1065 49.0031Z" fill="white"/>
<path d="M97.8221 50.7741C98.4927 49.922 99.3645 48.9363 100.37 48.1678C101.242 43.7236 102.013 39.2459 102.013 38.327V13.6667H98.1406V38.7614C98.1406 39.5133 97.6545 46.5304 97.1348 51.7432C97.1683 51.7097 97.1851 51.6596 97.2186 51.6095C97.403 51.3255 97.5874 51.0414 97.8221 50.7741Z" fill="white"/>
<path d="M94.6201 55.5525C94.9051 55.0512 95.2236 54.55 95.5421 54.0488C94.9218 48.8026 94.2512 39.1791 94.2512 38.7447V13.6667H90.3618V38.327C90.3618 39.8307 92.2059 49.9053 93.48 55.0345C93.5974 55.1348 93.7315 55.2183 93.8489 55.3353C94.1171 55.3854 94.3686 55.4689 94.6201 55.5525Z" fill="white"/>
<path d="M32.272 54.7171C32.4229 54.7672 32.6576 54.8173 32.7917 54.8841C33.7976 54.3495 34.7699 54.0822 35.7087 54.0822C35.8764 54.0822 36.044 54.1156 36.2117 54.1323C36.2117 54.0153 36.2117 53.8984 36.2117 53.7814V41.7019H32.2887L32.272 54.7171Z" fill="white"/>
<path d="M44.9461 54.0154C45.0634 54.0154 45.1808 54.0321 45.2982 54.0488C45.3149 53.7982 45.3317 53.5476 45.3317 53.2803V43.3727C45.3317 40.3486 44.3929 37.0406 42.5152 33.532L42.247 32.9472C42.2134 32.8637 42.1631 32.7634 42.1129 32.6966L37.6199 24.0588C37.2008 23.19 36.8655 22.3212 36.5805 21.419C36.4464 20.9011 36.3626 20.3999 36.3458 19.8652C36.3123 19.3807 36.3123 18.8294 36.3123 18.2446V17.2422L36.2117 11.5616C36.2117 10.8432 36.2452 10.2584 36.2955 9.7739C36.3626 9.15572 36.5805 8.6545 36.9158 8.28693C37.4355 7.68546 38.4414 7.68546 38.7599 7.68546C39.112 7.68546 40.1681 7.68546 40.7046 8.30364C41.2411 9.03877 41.4758 10.0746 41.4758 11.5449V22.3379H45.3317V12.0628C45.3317 9.82402 44.8455 8.25352 43.8732 7.41814C42.884 6.53265 41.2076 6.08154 38.8437 6.08154C36.3626 6.13167 34.6526 6.56606 33.7808 7.38473C32.7581 8.25352 32.272 9.80732 32.272 12.0461V18.8795C32.272 21.2353 33.1605 24.0254 34.9208 27.1998C35.0046 27.3502 38.9108 34.8185 38.9108 34.8185C39.3634 35.704 39.7658 36.5226 40.1011 37.2745C40.1514 37.3747 40.1849 37.475 40.2352 37.5752C40.3861 37.9595 40.6879 38.728 40.8723 39.3796C41.0902 40.1482 41.3082 41.3678 41.3417 41.7688C41.392 42.5373 41.4255 43.3226 41.4255 44.158V53.7815C41.4255 54.1825 41.4087 54.5333 41.3752 54.8675C42.3643 54.4164 43.3702 54.1323 44.4096 54.0655C44.5773 54.0321 44.7617 54.0154 44.9461 54.0154Z" fill="white"/>
<path d="M52.1884 46.8646L52.3896 46.7977H52.7417V3.17443H60.8222V0H40.6543V3.17443H48.7349V49.4208C49.154 48.7692 49.4222 48.4518 49.6234 48.2346C50.3108 47.466 51.1993 47.0149 52.1884 46.8646Z" fill="white"/>
<path d="M56.0107 52.6788V54.0321C56.1784 54.0488 56.3293 54.0822 56.4299 54.0989C57.0502 54.1991 57.6034 54.3662 58.0896 54.6001C58.2069 54.4999 58.3075 54.4331 58.3913 54.3829C58.9613 53.9652 59.4978 53.748 60.0007 53.6311V28.9708H66.3546V54.7505C66.7904 54.951 67.176 55.235 67.4946 55.6026C67.5449 55.5692 67.5952 55.5358 67.6454 55.5023C68.1484 55.1849 68.6849 54.9009 69.2884 54.667C69.6404 54.5166 69.9925 54.4331 70.3613 54.3328V0H66.3713V26.9993H60.0175V4.79505H56.0275V48.1844C56.4969 48.7859 56.7652 49.5378 56.7652 50.3564C56.7484 51.0581 56.5137 51.7766 56.0107 52.6788Z" fill="white"/>
<path d="M75.7596 55.4523C76.0111 55.3019 76.2794 55.1515 76.5308 55.0179C76.9499 54.8007 77.3691 54.6503 77.7882 54.4999V32.7468H82.9014V54.5501C83.7229 54.951 84.2594 55.4857 84.5611 55.87C84.6114 55.9368 84.6449 55.9869 84.6785 56.0537C84.8629 55.9034 85.0641 55.7697 85.282 55.6361C85.8017 55.3019 86.3214 55.0346 86.8411 54.784V12.4806C86.8411 10.2417 86.3549 8.67124 85.3826 7.83587C84.3935 6.95037 82.717 6.49927 80.3532 6.49927C77.9055 6.58281 76.1955 7.03391 75.3405 7.81916C74.3682 8.73807 73.8652 10.3086 73.8652 12.4806V54.2994C74.6029 54.5334 75.1561 54.8842 75.5082 55.2017C75.6088 55.3019 75.6926 55.3687 75.7596 55.4523ZM77.8049 11.9793C77.8049 10.3921 77.9726 9.42308 78.3414 8.83832C78.9617 8.1199 79.9508 8.1199 80.2693 8.1199C80.6214 8.1199 81.6776 8.1199 82.2141 8.73807C82.7002 9.43979 82.9014 10.4422 82.9014 11.9793V30.6416H77.7882L77.8049 11.9793Z" fill="white"/>
<path d="M107.68 50.9413C107.68 52.5285 106.959 54.3162 105.517 56.5216V59.1781H114V56.4548H109.725V40.2986H113.464V37.5753H109.725V23.424H113.749V20.7007H105.5V47.1988C106.842 47.8337 107.68 49.187 107.68 50.9413Z" fill="white"/>
<path d="M101.863 61.801C101.913 61.7174 101.98 61.6506 102.03 61.5504C102.131 61.4167 102.164 61.2663 102.114 61.0993C102.064 60.9322 101.946 60.8486 101.762 60.8486C101.611 60.8486 101.393 61.0157 101.091 61.3499C100.957 61.5169 100.857 61.6339 100.723 61.7843C100.337 62.2354 99.9682 62.6531 99.6496 63.0039C98.5767 64.1233 97.772 64.7248 97.2523 64.7248C96.917 64.7248 96.7493 64.4408 96.7493 63.856C96.7493 63.6054 96.8164 63.3214 96.8835 63.0206C96.9673 62.6531 97.1182 62.2521 97.3361 61.801C97.3696 61.7174 97.3864 61.6673 97.4199 61.5838C99.7502 59.3951 101.578 57.3568 102.902 55.4354C104.226 53.514 104.897 52.0271 104.897 50.9244C104.897 50.0556 104.545 49.6045 103.841 49.6045C102.835 49.6045 101.561 50.5735 100.018 52.4949C99.7334 52.8625 99.482 53.2467 99.2137 53.631C98.0737 55.1681 97.0511 56.8054 96.1793 58.5764C96.129 58.66 96.0787 58.7435 96.0285 58.8437C95.559 59.8128 95.2237 60.6314 94.9387 61.3833C94.8214 61.5337 94.7208 61.6339 94.6035 61.7843C94.2179 62.2521 93.849 62.6531 93.5305 63.0039C92.5246 64.0732 91.7702 64.6245 91.3008 64.6245C91.0326 64.6245 90.9152 64.4909 90.9152 64.2069C90.9152 63.9729 91.0996 63.5553 91.4349 63.0039C91.6361 62.6531 91.9043 62.2521 92.2396 61.7843C92.2899 61.7007 92.3402 61.6506 92.3905 61.5671C93.3629 60.1971 93.8826 59.4619 93.9329 59.3283C94.1173 58.9774 94.134 58.6767 93.9832 58.4261C93.8323 58.1754 93.564 58.0585 93.1449 58.0585C92.8096 58.0585 92.5246 58.1086 92.3067 58.2256C92.2061 57.2732 91.5355 56.8054 90.3117 56.8054C89.0879 56.8054 87.9814 57.2064 86.8582 57.9582C86.3552 58.2924 85.8523 58.6767 85.3493 59.1779C84.9805 59.5455 84.6787 59.8963 84.3937 60.2639C84.2596 60.3307 84.1423 60.3975 83.9746 60.4644C83.5387 60.6482 83.0526 60.7484 82.5329 60.7484C82.6167 60.3474 82.667 60.0801 82.667 59.913C82.667 59.5789 82.5832 59.3283 82.4155 59.1612C82.6838 58.5263 82.6335 57.9917 82.2982 57.5071C81.9629 57.0393 81.3761 56.8054 80.5714 56.8054C79.6326 56.8054 78.7105 57.056 77.8052 57.5071C77.0843 57.8747 76.3802 58.3592 75.6929 59.0108C75.6258 59.0609 75.5923 59.1278 75.5252 59.1779C74.6535 60.03 74.0667 60.9155 73.7146 61.7843C73.7146 61.7843 73.7146 61.7843 73.6979 61.801C73.2955 62.2354 72.8932 62.6364 72.474 63.0206C72.1555 63.3047 71.8538 63.572 71.5185 63.8059C70.6132 64.4575 69.8085 64.7916 69.1211 64.7916C68.7187 64.7916 68.417 64.6914 68.199 64.5076C67.9811 64.3238 67.8805 63.9729 67.8805 63.4884C67.8805 63.3548 67.9476 63.1877 67.9811 63.0373C68.0482 62.6698 68.199 62.2688 68.4338 61.8177C68.5343 61.6339 68.5846 61.4835 68.702 61.283C69.2552 60.3975 69.8755 59.629 70.5796 58.9941C71.2837 58.3425 71.8705 58.0251 72.3064 58.0251C72.5746 58.0251 72.7088 58.1086 72.7088 58.2757C72.7088 58.4428 72.5579 58.7602 72.2393 59.1946C71.9376 59.6457 71.7699 59.9631 71.7699 60.1803C71.7699 60.4477 71.9376 60.5813 72.2729 60.5813C72.6585 60.5813 73.0608 60.3307 73.4799 59.8295C73.6643 59.6123 73.7817 59.3951 73.8823 59.1946C74.0164 58.9106 74.1002 58.6265 74.1002 58.3592C74.1002 58.0919 73.9996 57.8413 73.832 57.6074C73.7649 57.5071 73.6979 57.3902 73.5973 57.3067C73.262 57.0059 72.7926 56.8555 72.1723 56.8555C71.552 56.8555 70.9485 57.0059 70.2946 57.2732C69.8923 57.4403 69.5067 57.6241 69.0876 57.8914C68.484 58.2757 67.9643 58.7268 67.4782 59.2113C67.0926 59.5956 66.7238 60.0133 66.4052 60.4811C66.204 60.7818 66.0364 61.0825 65.8855 61.3833C65.8688 61.4 65.8687 61.4 65.852 61.4167C65.7179 61.5838 65.6005 61.7007 65.4832 61.8511C65.0976 62.3022 64.7455 62.7199 64.4102 63.0707C63.287 64.2403 62.432 64.8584 61.8788 64.8584C61.6273 64.8584 61.5099 64.7415 61.5099 64.5076C61.5099 64.2737 61.7614 63.7892 62.214 63.0707C62.432 62.7199 62.7002 62.3189 63.0187 61.8511C63.5552 61.0826 64.2426 60.1469 65.064 59.0442C65.3323 58.66 65.4832 58.3258 65.4832 58.0251C65.4832 57.5071 65.2317 57.2398 64.7288 57.2398C64.1923 57.2398 63.2032 57.3902 61.7949 57.7076C61.7949 57.6742 61.8117 57.6408 61.8285 57.574C61.8452 57.5239 61.862 57.457 61.8788 57.3902C61.8788 57.3234 61.8955 57.2398 61.8955 57.173C61.8955 56.6049 61.5937 56.3209 60.9902 56.3209C60.6214 56.3209 60.2861 56.4713 59.9676 56.7219C59.9005 56.772 59.8502 56.7887 59.7832 56.8388C59.4311 57.1897 59.2467 57.574 59.2467 58.0084C59.2467 58.259 59.3305 58.4428 59.4982 58.5931C59.6658 58.7268 59.8167 58.7936 59.9508 58.7936C59.867 58.9273 59.7496 59.0776 59.649 59.228C59.1964 59.8796 58.6767 60.598 58.0564 61.4167C57.9223 61.5838 57.8049 61.7007 57.6708 61.8511C57.2852 62.3022 56.8996 62.7199 56.514 63.0707C55.2567 64.2236 54.0496 64.8417 52.9264 64.8417C52.457 64.8417 52.1049 64.7248 51.8535 64.4742C51.602 64.2236 51.4846 63.8894 51.4846 63.455C51.4846 63.3214 51.5182 63.2044 51.5182 63.0707C51.5517 62.6698 51.6523 62.2688 51.8199 61.8511C51.8199 61.8344 51.8199 61.8344 51.8367 61.8177C51.9876 61.8344 52.1217 61.8344 52.2726 61.8511C52.6749 61.8845 53.0438 61.9179 53.4126 61.9179C53.7479 61.9179 54.0664 61.9012 54.3682 61.8511C55.0723 61.7509 55.6926 61.5337 56.1955 61.2162C57.1008 60.6482 57.587 59.9799 57.7043 59.228C57.7211 59.1111 57.7546 58.9941 57.7546 58.8604C57.7546 58.1921 57.5535 57.6909 57.1343 57.3568C56.8326 57.1062 56.4302 56.9725 55.9776 56.9057C55.8099 56.889 55.659 56.8388 55.4914 56.8388C54.6364 56.8388 53.7143 57.1396 52.7252 57.7243L52.7085 57.7411C52.0882 58.1253 51.5349 58.6433 50.9985 59.228C50.7135 59.5455 50.4285 59.8462 50.177 60.2305C49.892 60.6649 49.674 61.0993 49.5064 61.5504C49.4058 61.6673 49.3388 61.7509 49.2382 61.8511C48.8526 62.3189 48.5005 62.7199 48.1652 63.0707C47.1593 64.14 46.4049 64.6914 45.9188 64.6914C45.6505 64.6914 45.5164 64.5577 45.5164 64.2737C45.5164 64.14 45.5499 63.9562 45.6338 63.7558C45.7008 63.5887 45.8349 63.3381 45.9858 63.0707C46.0193 63.0206 46.0193 63.0039 46.0529 62.9371C46.254 62.6029 46.4385 62.2855 46.6061 62.0015C46.6229 61.9513 46.6732 61.8845 46.7067 61.8344C46.8743 61.5671 47.0923 61.1995 47.394 60.7317C47.7461 60.1803 48.0479 59.7125 48.2658 59.3283C48.3999 59.1111 48.5676 58.8605 48.7017 58.6433C49.3723 57.574 50.1099 56.4546 50.9482 55.2349C51.669 54.1824 52.239 53.3303 52.6917 52.662C52.8761 52.3779 53.0437 52.1273 53.1946 51.9101C53.6808 51.175 53.9155 50.6738 53.9155 50.3897C53.9155 50.1057 53.8317 49.9219 53.664 49.805C53.4964 49.688 53.1946 49.6379 52.7923 49.6379C52.7587 49.6379 52.742 49.6546 52.7085 49.6546C52.3061 49.6713 51.9708 49.8217 51.6858 50.1391C51.384 50.4733 50.8643 51.2585 50.1602 52.4615L48.7185 54.9342L46.9582 57.9582C46.757 57.5573 46.5055 57.2732 46.2038 57.0895C45.902 56.9057 45.4661 56.8221 44.9296 56.8221C44.829 56.8221 44.7285 56.8555 44.6279 56.8555C43.052 56.9391 41.5096 57.6909 40.0343 59.1278C40.0176 59.1445 40.0008 59.1612 39.9673 59.1779C39.1458 59.9966 38.5423 60.8152 38.1399 61.6172C38.0729 61.684 38.0393 61.7341 37.9723 61.801C37.6035 62.2521 37.2346 62.6698 36.8993 63.0206C35.7761 64.2069 34.9379 64.8083 34.3846 64.8083C34.1332 64.8083 34.0158 64.6914 34.0158 64.4575C34.0158 64.2236 34.3008 63.7223 34.8373 63.0206C34.854 63.0039 34.854 62.9872 34.8708 62.9705C35.1558 62.6029 35.424 62.1852 35.709 61.801C35.994 61.4 36.2958 61.0157 36.5808 60.5813C36.9664 59.9966 37.1676 59.5288 37.2849 59.1111C37.3352 58.9106 37.419 58.7101 37.419 58.543C37.419 58.0585 37.2514 57.6575 36.9329 57.3401C36.6143 57.0393 36.1785 56.8723 35.6588 56.8723C35.0385 56.8723 34.3176 57.1563 33.5129 57.6742C33.362 57.7745 33.2111 57.858 33.0602 57.975C32.0711 58.7101 31.2496 59.5622 30.5958 60.5312L30.5455 60.4811C30.7299 60.1302 30.9479 59.7627 31.1993 59.3951C31.4508 59.0275 31.6352 58.7435 31.7526 58.543C31.8699 58.3425 31.9202 58.1587 31.9202 57.9917C31.9202 57.5239 31.6017 57.3067 30.9479 57.3067C30.4114 57.3067 30.009 57.5239 29.7743 57.975L27.9135 61.283C27.8799 61.3165 27.8632 61.3332 27.8296 61.3666C27.6955 61.5169 27.5782 61.6506 27.4608 61.801C27.0752 62.2521 26.7064 62.6531 26.3711 63.0206C24.9796 64.5577 23.8732 65.3263 23.1355 65.3263C22.8505 65.3263 22.7164 65.1425 22.7164 64.7415C22.7164 64.3405 22.9008 63.7892 23.2361 63.0206C23.4038 62.6531 23.5882 62.2521 23.8229 61.801C24.3258 60.8486 24.8958 59.8963 25.4658 58.944C25.734 58.4929 25.952 58.0418 26.237 57.6074C27.1088 56.2207 27.9135 54.9008 28.6511 53.6477C28.7349 53.5141 28.7852 53.3971 28.8523 53.2801C29.4223 52.2777 29.724 51.6261 29.724 51.4256C29.7073 51.058 29.4223 50.8408 28.8523 50.7573C28.6679 50.7239 28.4667 50.7072 28.232 50.7072C27.9973 50.7072 27.7793 50.8074 27.5446 51.0079C27.3267 51.2084 27.159 51.3922 27.0417 51.576C26.9243 51.7431 26.7064 52.0939 26.3879 52.6286C25.8346 53.4973 25.3652 54.2826 24.9629 54.9509C24.6443 55.5022 24.3593 55.9868 24.1246 56.4044C23.8899 56.7386 23.6385 57.056 23.4038 57.3735C22.9511 57.9917 22.4817 58.5764 22.029 59.1278C21.2243 60.0968 20.4196 60.999 19.6317 61.801C19.4305 62.0015 19.2293 62.2187 19.0114 62.4192C18.7767 62.6531 18.5588 62.8201 18.324 63.0206C16.9326 64.2403 15.7423 64.8752 14.8035 64.8752C14.4179 64.8752 14.2335 64.5911 14.2335 64.0231C14.2335 63.7558 14.3005 63.4049 14.4346 63.0206C14.552 62.6698 14.7364 62.2521 14.9711 61.801C15.0214 61.684 15.0717 61.5838 15.1388 61.4668C15.759 60.3474 16.4296 59.2614 17.1673 58.2256C17.4188 57.858 17.6367 57.4904 17.8714 57.1229C18.324 56.4379 18.7935 55.7696 19.179 55.0678C19.7993 53.9986 20.1011 53.2133 20.1011 52.6787C20.1011 52.0772 19.8664 51.5927 19.4138 51.2251C18.9611 50.8576 18.3911 50.6738 17.7205 50.6738C17.5696 50.6738 17.3852 50.7072 17.2176 50.7239C16.6476 50.774 16.0273 50.8743 15.3064 51.0915C14.7699 51.2418 14.2838 51.459 13.7976 51.7096C13.4288 51.8934 13.0767 52.0939 12.7414 52.3445C11.9702 52.8959 11.5846 53.4973 11.5846 54.1489C11.5846 54.4163 11.6685 54.6335 11.8529 54.8005C12.0373 54.9843 12.2049 55.0678 12.3726 55.0678C12.557 55.0678 12.9426 54.8339 13.5293 54.3494C13.6132 54.2826 13.7138 54.2158 13.7976 54.1489C14.334 53.7312 14.904 53.3303 15.5746 52.9126C16.1614 52.545 16.6979 52.3612 17.2176 52.2777C17.3852 52.2443 17.5529 52.1942 17.7038 52.1942C17.8043 52.1942 17.8714 52.2944 17.8714 52.4949C17.8714 52.7956 17.6535 53.2801 17.2343 53.9484C17.1338 54.1155 17.0164 54.2826 16.899 54.4664C16.2452 55.402 15.5243 56.3877 14.7196 57.3735C14.4011 57.7745 14.1161 58.1922 13.8143 58.6265C13.697 58.8103 13.5629 58.9941 13.4455 59.1779C13.127 59.6791 12.8252 60.1803 12.5402 60.715C12.339 61.0993 12.1714 61.4501 12.0373 61.801C11.8696 62.2354 11.7355 62.6364 11.6685 63.0206C11.6014 63.3381 11.5679 63.6388 11.5679 63.9061C11.5679 64.6914 11.8361 65.3764 12.3726 65.9611C12.909 66.5459 13.6635 66.8466 14.619 66.8466C15.9267 66.8466 17.6702 65.5435 19.8496 63.0039C20.1682 62.6196 20.5035 62.2187 20.8555 61.7843C21.0064 61.5838 21.1573 61.4 21.3249 61.1995C21.2076 61.4 21.1238 61.6005 21.0232 61.7843C20.822 62.2187 20.6543 62.6196 20.537 63.0039C20.4029 63.4717 20.319 63.9061 20.319 64.2904C20.319 65.0088 20.5705 65.6103 21.0902 66.0948C21.6099 66.5793 22.1632 66.8132 22.7667 66.8132C23.672 66.8132 24.6276 66.3454 25.5999 65.4265C25.734 65.3096 25.8682 65.1592 26.0023 65.0255C25.9185 65.2427 25.8682 65.4432 25.8682 65.5602C25.8682 66.0781 26.1699 66.3454 26.7735 66.3454C27.2764 66.3454 27.662 66.1115 27.9135 65.627C28.3829 64.6747 28.8858 63.8059 29.439 63.0039C29.724 62.5695 30.0258 62.1685 30.3443 61.7843C30.7132 61.3332 31.082 60.8988 31.4676 60.5145C32.8088 59.1779 33.9152 58.5096 34.787 58.5096H34.8038C34.9546 58.5096 35.072 58.5597 35.139 58.6433C35.2061 58.7101 35.2396 58.8103 35.2396 58.9273C35.2396 59.1946 34.9546 59.6958 34.4014 60.431C34.0829 60.8486 33.7643 61.3332 33.4458 61.7843C33.2111 62.1351 32.9596 62.4526 32.7082 62.8201C32.6579 62.887 32.6411 62.9371 32.6076 63.0039C32.1214 63.7725 31.8699 64.4241 31.8699 64.9253C31.8699 65.4265 32.0376 65.8442 32.3896 66.0948C32.7417 66.3454 33.1608 66.4791 33.6638 66.4791C34.502 66.4791 35.357 66.0614 36.2623 65.226C36.6814 64.8417 37.134 64.3405 37.6202 63.7725C37.6202 63.7892 37.6202 63.8059 37.6202 63.8226C37.6202 64.7248 37.8046 65.3931 38.1902 65.8275C38.5758 66.2619 39.0285 66.4791 39.5817 66.4791C39.984 66.4791 40.3696 66.3955 40.7552 66.2285C41.1408 66.0614 41.4593 65.8776 41.7276 65.6938C41.9958 65.51 42.2976 65.1926 42.6496 64.7749C43.0017 64.3572 43.2532 64.0398 43.404 63.8393C43.5214 63.6722 43.7393 63.3882 43.9908 63.0206C44.0411 62.9538 44.0746 62.9037 44.1249 62.8201L44.1752 62.8368C44.1417 62.9037 44.1249 62.9538 44.1082 63.0039C43.7729 63.6889 43.5885 64.2904 43.5885 64.7749C43.5885 65.2928 43.7393 65.7105 44.0411 65.9946C44.3429 66.2786 44.7117 66.429 45.1643 66.429C46.187 66.429 47.5114 65.4265 49.1208 63.4717C49.1208 63.5051 49.1208 63.5218 49.1208 63.5553C49.1208 64.4408 49.389 65.1592 49.9255 65.7105C50.462 66.2619 51.1829 66.5292 52.0882 66.5292C53.2952 66.5292 54.5526 66.028 55.8602 65.0255C56.6649 64.4241 57.3355 63.739 57.939 63.0039C58.2743 62.6196 58.5929 62.2187 58.8611 61.7843C58.9114 61.7007 58.9952 61.6339 59.0455 61.5337C59.0455 61.5337 59.0455 61.5169 59.0623 61.5169C60.0514 60.1469 60.7387 59.1612 61.0908 58.6098C62.1302 58.4093 62.8343 58.2924 63.2199 58.2423C62.9685 58.66 62.4823 59.3617 61.7446 60.3474C61.3758 60.8486 61.0405 61.3332 60.7387 61.7843C60.4537 62.2187 60.2023 62.6196 59.9676 63.0039C59.9676 63.0206 59.9508 63.0373 59.934 63.054C59.4479 63.856 59.2132 64.5076 59.2132 64.9754C59.2132 65.4766 59.364 65.8609 59.6658 66.1282C59.9676 66.3955 60.3532 66.5125 60.8393 66.5125C61.7782 66.5125 62.7337 66.0948 63.6893 65.2427C64.2426 64.7582 64.8126 64.14 65.4161 63.4216C65.4161 64.4408 65.6843 65.226 66.1873 65.7272C66.707 66.2452 67.3608 66.5125 68.1488 66.5125C69.2888 66.5125 70.4623 66.0614 71.6693 65.1759C72.2561 64.7415 72.8261 64.2236 73.3961 63.6388C73.4129 64.4408 73.6979 65.1091 74.2343 65.6604C74.8043 66.2452 75.5085 66.5292 76.3635 66.5292C77.4196 66.5292 78.5093 66.0447 79.599 65.0756C80.3199 64.4408 80.8732 63.739 81.3761 63.0039C81.6443 62.6196 81.9126 62.2354 82.1137 61.8177C82.1808 61.8177 82.2311 61.7843 82.2982 61.7843C82.734 61.7508 83.1699 61.684 83.5555 61.5671C83.522 61.6339 83.5052 61.7174 83.4717 61.7843C83.2873 62.1852 83.1699 62.6029 83.0861 63.0039C83.0358 63.2712 82.9855 63.5553 82.9855 63.8226C82.9855 64.7248 83.1699 65.3931 83.5555 65.8275C83.9411 66.2619 84.3938 66.4791 84.947 66.4791C85.3493 66.4791 85.7349 66.3955 86.1205 66.2285C86.5061 66.0614 86.8246 65.8776 87.0929 65.6938C87.3611 65.51 87.6629 65.1926 88.0149 64.7749C88.367 64.3572 88.6185 64.0398 88.7693 63.8393C88.8867 63.6722 89.1046 63.3882 89.3561 63.0206C89.4064 62.9538 89.4399 62.9037 89.4902 62.8201L89.5405 62.8368C89.507 62.9037 89.4902 62.9538 89.4735 63.0039C89.1382 63.6889 88.937 64.2904 88.937 64.7749C88.937 65.2928 89.0879 65.7105 89.3896 65.9946C89.6914 66.2786 90.0602 66.429 90.5129 66.429C91.5188 66.429 92.8264 65.4599 94.4023 63.5553C94.3855 63.6889 94.352 63.856 94.352 63.9729C94.352 65.6604 95.0393 66.5125 96.4308 66.5125C97.3026 66.5125 98.1576 66.1115 99.0126 65.2928C99.5993 64.7415 100.253 63.9562 100.991 63.0039C101.259 62.6363 101.561 62.2354 101.863 61.801ZM103.573 51.3588C103.69 51.3588 103.757 51.4089 103.757 51.4924C103.757 52.1273 103.237 53.23 102.215 54.7838C101.192 56.3543 99.767 58.0919 97.9229 60.0133C100.924 54.2325 102.801 51.3421 103.573 51.3588ZM54.1502 58.8939C54.9046 58.3258 55.5082 58.0585 55.9776 58.0585C55.9943 58.0585 55.9943 58.0752 56.0111 58.0752C56.3464 58.0919 56.5308 58.3091 56.5308 58.7268C56.5308 58.8772 56.514 59.0275 56.4637 59.1779C56.3129 59.6123 55.9608 60.0133 55.374 60.3808C54.7537 60.7818 53.9658 60.9656 53.027 60.9656C52.7923 60.9656 52.5408 60.9489 52.2726 60.9322C52.7755 60.1469 53.3958 59.4619 54.1502 58.8939ZM44.192 61.801C43.8064 62.2688 43.4376 62.6698 43.0688 63.0206C42.0293 64.0064 41.0905 64.5076 40.2355 64.5076C39.9505 64.5076 39.8164 64.3405 39.8164 64.0064C39.8164 63.7056 39.917 63.3715 40.0511 63.0206C40.202 62.6531 40.4199 62.2354 40.7385 61.801C41.057 61.3499 41.4258 60.8821 41.8952 60.3641C43.2699 58.8939 44.477 58.1587 45.4829 58.1587C45.969 58.1587 46.2876 58.2924 46.472 58.543L46.2205 58.9607C45.5164 60.0968 44.829 61.0157 44.192 61.801ZM81.6443 58.8437C81.1079 58.8437 80.6552 59.0442 80.2864 59.4285C79.9176 59.8128 79.7332 60.1971 79.7332 60.5646C79.7332 60.7985 79.8002 60.9823 79.9343 61.1494C80.0685 61.3165 80.2026 61.4167 80.3367 61.5002C80.4708 61.5838 80.672 61.6673 80.9402 61.7509C80.9235 61.7676 80.9067 61.7843 80.9067 61.8177C80.6888 62.1685 80.3367 62.5695 79.8338 63.0373C79.6158 63.2378 79.3811 63.4383 79.1129 63.6555C78.174 64.4073 77.3526 64.7916 76.6485 64.7916C76.0114 64.7916 75.6929 64.4073 75.6929 63.6221C75.6929 63.4216 75.7432 63.2378 75.7767 63.0373C75.8605 62.6363 75.9779 62.2354 76.2126 61.8177C76.5311 61.2329 76.9837 60.6482 77.5873 60.03C78.8446 58.7602 79.9511 58.1086 80.9235 58.1086C81.2252 58.1086 81.4264 58.1754 81.5605 58.3258C81.6946 58.4762 81.7449 58.6433 81.7114 58.8437H81.6443ZM89.507 61.801C89.1214 62.2688 88.7526 62.6698 88.3838 63.0206C87.3443 64.0064 86.4055 64.5076 85.5673 64.5076C85.2823 64.5076 85.1482 64.3405 85.1482 64.0064C85.1482 63.7223 85.2487 63.3715 85.3996 63.0206C85.5505 62.6531 85.802 62.2521 86.1037 61.801C86.4223 61.3666 86.7743 60.9155 87.2438 60.4143C88.652 58.9106 89.8088 58.1587 90.7308 58.1587C91.284 58.1587 91.6026 58.3592 91.6529 58.7769L91.5355 58.9607C90.8482 60.0968 90.1608 61.0324 89.507 61.801Z" fill="white"/>
</svg>
